<svg id="Layer_1" data-name="Layer 1" xmlns="http://www.w3.org/2000/svg" viewBox="0 0 245 160.71"><defs><style>.cls-1{fill:#eaab4e;}.cls-2{fill:#fad575;}</style></defs><title>campanelle</title><path class="cls-1" d="M267.45,221.74a6.15,6.15,0,0,0,1.06.44,33.15,33.15,0,0,1,17,11c6.23,7.43,14.76,11.67,23,16.38,6.33,3.64,12.6,7.38,19,10.91a7.38,7.38,0,0,0,4.17.64c5.55-.66,11.06-1.31,16.57.29a13.53,13.53,0,0,1,9.24,8.34c1.66,4.08,2.46,4.6,6.83,4.67a32.22,32.22,0,0,1,5.48.23c5.08.94,8.24,4.5,8.8,9.73.23,2.23.27,4.48.42,6.72.21,3.14,1.09,4.32,4.2,4.91s6.11.66,9.11,1.28c7.84,1.62,13,6.46,15.36,14,1.25,4.08,1.68,8.43,2.35,12.67.32,2-.51,3.91-2.41,4.44a8.7,8.7,0,0,1-4.85-.52c-2.15-.77-4.05-2.3-6.22-2.94-3.79-1.14-6.41-.12-8.59,3.19s-3.91,6.54-5.88,9.81c-3.62,6-8.21,11.09-15.67,11.23a30,30,0,0,1-12.77-2.49c-9.61-4.43-19-9.44-28.22-14.59-11.81-6.57-23.36-13.6-35.14-20.23a29.26,29.26,0,0,0-8.19-2.73c-3.47-.74-6.34.85-8.7,3.31-1.66,1.75-3.15,3.66-4.82,5.4-4.94,5.13-11.18,5.19-16.23.17-1.71-1.7-3.23-3.59-5-5.23a8.24,8.24,0,0,0-7.68-2.44c-5,1-9.39-1.43-12.17-6.29-.87-1.52-1.59-3.11-2.48-4.6a6.28,6.28,0,0,0-6.31-3.12c-2.17.16-3.69,1.13-4.07,3.31-1.87,10.87-9.34,13.95-19.75,10.61-15.59-5-25.1-15.85-28.29-31.75-4.4-21.92,1-41.76,14.09-59.66a36.29,36.29,0,0,1,12-11c6.86-3.66,12.29-1.58,15,5.7.44,1.17.86,2.33,1.22,3.52,2.46,8.08,9.3,10.38,16.07,10.2a29.61,29.61,0,0,0,6.3-1.28c2-.51,2.6-1.65,1.86-3.74-1.06-3-1.68-6-.74-9.25a11,11,0,0,1,5-6.88A46.14,46.14,0,0,0,251.88,193c4.14-5.59,9.58-5.9,14.74-1.19,5.32,4.85,6,10.52,2.28,16.68a10.85,10.85,0,0,0-1.39,4.65C267.3,215.9,267.45,218.72,267.45,221.74Zm27.05,81.91c14,8.19,27.75,16.47,41.76,24.35A207.93,207.93,0,0,0,359,339.11c7.37,3,11.18,1.26,15.36-5.57.69-1.13,1.31-2.3,2-3.44,1.36-2.28,2.64-4.61,4.12-6.81,2.66-4,6.2-6.81,11-7.4a68.25,68.25,0,0,1,8.33-.06c-1.29-6.44-5.59-9.84-12.43-10.23-.83-.05-1.66-.08-2.49-.15-6.46-.53-11.88-2.75-14-9.52a26.09,26.09,0,0,1-.88-6.62c-.29-6-.24-6-6.16-6-7.76,0-11.53-2.51-14.4-9.75-.89-2.24-2.47-3.75-4.72-3.9-3.82-.27-7.68-.08-11.24-.08-.57,3.42-.8,6.16-1.51,8.78-2,7.56-7.44,10.88-15.06,9.15-3-.7-5.92-2.09-8.93-3-3.49-1-3.74-.85-4.57,2.67C301.88,293.49,299.79,299.46,294.5,303.65Zm-95.87-88.81a23.38,23.38,0,0,0-8.72,6.86c-12.89,15.76-18.24,33.68-14.84,53.87,2.28,13.54,10.9,23.32,24.25,26.68,4.21,1.06,5.38.45,6.33-3.79,1.36-6.09,4.89-9.67,11-11A51.33,51.33,0,0,0,227,284.14c3.56-1.6,4.19-3.65,2.93-7.32-.76-2.18-1.76-4.28-2.54-6.46-2.69-7.51-.16-14.37,6.82-18.23,2.45-1.36,5.09-2.39,7.57-3.71a12.5,12.5,0,0,0,3.35-2.49c1.54-1.7,1.17-6.44-.41-7.29-2.85-1.53-5.72-3-9-4.77C224,239.56,202.4,236.26,198.63,214.84ZM293.42,290c.57-2.33,1.05-4.42,1.6-6.49,1.63-6.08,6.63-9.35,12.84-8.16a47.26,47.26,0,0,1,7.09,2.21c7.49,2.7,8.87,1.76,9.19-6.22a3.32,3.32,0,0,0-1.94-3.52c-5.87-3.25-11.68-6.63-17.45-10.07-8.31-4.95-17.34-8.86-23.78-16.51-4.71-5.6-10.63-9.12-17.57-11.53-4-1.41-7.53-.66-11.62.06,1,3.14,2.05,6,2.85,8.89,1.55,5.7.35,10.82-4.19,14.65a36.69,36.69,0,0,1-8.09,4.74c-7.71,3.6-8.42,5.18-5,13,1.9,4.35,3.11,8.72,1.31,13.5A49.64,49.64,0,0,1,262.54,290a2.64,2.64,0,0,0,1.82.09A51.39,51.39,0,0,1,293.42,290ZM259.8,197.68c-.18.11-.37.16-.46.28a55.36,55.36,0,0,1-17.07,15.74,3.07,3.07,0,0,0-1.19,2.48c.51,3.57,1.29,7.09,2,10.63,0,.05.26.05.16,0,1.18-1.42,2-3.26,3.43-4A34.16,34.16,0,0,1,255,220.1c3.51-.72,3.6-.51,3.48-4.15-.15-4.12.17-8.1,2.44-11.71C263,201,262.86,200.49,259.8,197.68Zm27.87,100.05a43.44,43.44,0,0,0-16.84-.17c-6.78,1.15-11.41,4.75-12.86,11.68a3.84,3.84,0,0,0,1.44,2.95c.46.37,2,0,2.66-.59a36.82,36.82,0,0,0,3.5-3.87c4.32-4.91,9.5-8.12,16.27-7.61C284.18,300.3,285.83,299.52,287.67,297.73ZM250,303.56l4.53-7.4a39.69,39.69,0,0,0-22.13-1.93c1.12,2,2.14,3.84,3.08,5.67a2.76,2.76,0,0,0,3.28,1.59A16.26,16.26,0,0,1,250,303.56Z" transform="translate(-165.08 -188.49)"/><path class="cls-2" d="M294.5,303.65c5.29-4.19,7.38-10.16,8.88-16.46.83-3.52,1.08-3.69,4.57-2.67,3,.87,5.89,2.26,8.93,3,7.62,1.73,13-1.59,15.06-9.15.71-2.62.94-5.36,1.51-8.78,3.56,0,7.42-.19,11.24.08,2.25.15,3.83,1.66,4.72,3.9,2.87,7.24,6.64,9.73,14.4,9.75,5.92,0,5.87,0,6.16,6a26.09,26.09,0,0,0,.88,6.62c2.13,6.77,7.55,9,14,9.52.83.07,1.66.1,2.49.15,6.84.39,11.14,3.79,12.43,10.23a68.25,68.25,0,0,0-8.33.06c-4.83.59-8.37,3.45-11,7.4-1.48,2.2-2.76,4.53-4.12,6.81-.68,1.14-1.3,2.31-2,3.44-4.18,6.83-8,8.6-15.36,5.57A207.93,207.93,0,0,1,336.26,328C322.25,320.12,308.48,311.84,294.5,303.65Z" transform="translate(-165.08 -188.49)"/><path class="cls-2" d="M198.63,214.84c3.77,21.42,25.36,24.72,37.16,19,3.25,1.73,6.12,3.24,9,4.77,1.58.85,2,5.59.41,7.29a12.5,12.5,0,0,1-3.35,2.49c-2.48,1.32-5.12,2.35-7.57,3.71-7,3.86-9.51,10.72-6.82,18.23.78,2.18,1.78,4.28,2.54,6.46,1.26,3.67.63,5.72-2.93,7.32a51.33,51.33,0,0,1-10.34,3.33c-6.16,1.32-9.69,4.9-11,11-1,4.24-2.12,4.85-6.33,3.79-13.35-3.36-22-13.14-24.25-26.68-3.4-20.19,2-38.11,14.84-53.87A23.38,23.38,0,0,1,198.63,214.84Z" transform="translate(-165.08 -188.49)"/><path class="cls-2" d="M322.2,267.78a3.32,3.32,0,0,1,1.94,3.52c-.32,8-1.7,8.92-9.19,6.22a47.26,47.26,0,0,0-7.09-2.21c-6.21-1.19-11.21,2.08-12.84,8.16-.55,2.07-1,4.16-1.6,6.49a51.39,51.39,0,0,0-29.06.17,2.64,2.64,0,0,1-1.82-.09,49.64,49.64,0,0,0-23.89-5.57c1.8-4.78.59-9.15-1.31-13.5-3.41-7.78-2.7-9.36,5-13a36.69,36.69,0,0,0,8.09-4.74c4.54-3.83,5.74-9,4.19-14.65-.8-2.91-1.83-5.75-2.85-8.89,4.09-.72,7.57-1.47,11.62-.06,6.94,2.41,12.86,5.93,17.57,11.53,6.44,7.65,15.47,11.56,23.78,16.51C310.52,261.15,316.33,264.53,322.2,267.78Z" transform="translate(-165.08 -188.49)"/><path class="cls-2" d="M287.67,297.73c-1.84,1.79-3.49,2.57-5.83,2.39-6.77-.51-11.95,2.7-16.27,7.61a36.82,36.82,0,0,1-3.5,3.87c-.65.55-2.2,1-2.66.59a3.84,3.84,0,0,1-1.44-2.95c1.45-6.93,6.08-10.53,12.86-11.68A43.44,43.44,0,0,1,287.67,297.73Z" transform="translate(-165.08 -188.49)"/><path class="cls-2" d="M254.53,296.16l-4.53,7.4a16.26,16.26,0,0,0-11.24-2.07,2.76,2.76,0,0,1-3.28-1.59c-.94-1.83-2-3.62-3.08-5.67A39.69,39.69,0,0,1,254.53,296.16Z" transform="translate(-165.08 -188.49)"/><path class="cls-2" d="M243.07,226.81c-.7-3.54-1.48-7.06-2-10.63a3.07,3.07,0,0,1,1.19-2.48A55.36,55.36,0,0,0,259.34,198c.09-.12.28-.17.46-.28,3.06,2.81,3.16,3.34,1.13,6.56-2.27,3.61-2.59,7.59-2.44,11.71.12,3.64,0,3.43-3.48,4.15a34.16,34.16,0,0,0-8.35,2.78c-1.41.7-2.25,2.54-3.43,4C243.33,226.86,243.08,226.86,243.07,226.81Z" transform="translate(-165.08 -188.49)"/></svg>