<svg id="Layer_1" data-name="Layer 1" xmlns="http://www.w3.org/2000/svg" viewBox="0 0 179.35 224.12"><defs><style>.cls-1{fill:#eaab4e;}.cls-2{fill:#fad575;}</style></defs><path class="cls-1" d="M282.19,290.22c-9.31.27-19,1.19-28.67.65-11.94-.67-21.87-6.17-27.54-17-5-9.45-5.08-19.59,1.18-28.61,5.53-8,12-15.24,18.08-22.82.41-.5.89-.95,1.76-1.88l-3,.35c-14.58,1.58-28.05-.76-38.75-11.71-11.91-12.19-14.05-32.45-5.08-47,5.45-8.82,14.63-12.11,25-10.06a35.08,35.08,0,0,1,15.95,7.06c3.87,3.21,5.86,7.5,6.91,12.41,14.05-1.79,27.55.41,40.82,4.52,11.47,3.55,20.25,15,21.43,26.87s-3.87,20.71-11.28,28.9c-2.33,2.58-4.74,5.09-7.1,7.61,1,0,2.24,0,3.52,0,10.59.1,20.85,1.73,30.1,7.23,11.15,6.64,15.77,16.83,15.27,29.52-.43,10.66-5.8,19-12.79,26.51-3.67,3.95-7.36,7.88-11.35,12.15,3,0,5.81-.09,8.57,0,12.93.49,25.16,3.3,36.53,9.86,11.88,6.84,14.94,18.32,9.94,30.47a36.47,36.47,0,0,1-12.51,16.08c-10.29,7.43-27.58,5.47-34.3-7.16a73.66,73.66,0,0,1-24.3,2.62c-11.77-.61-22.77-3.51-32.07-11.14s-11.74-17.56-9.61-29.07c2.06-11.1,8.61-19.59,15.71-27.8C277.28,295.77,280,292.74,282.19,290.22Zm82.88,50.7c-1.23-1.83-2-3.61-3.3-4.84-5.3-5-11.92-7.71-18.8-9.6-10.69-2.94-21.61-3.18-32.59-2.05-3.24.33-4.54,1.28-4.59,4.57a36,36,0,0,0,1,8.31c.71,3.3-.07,5.55-2.77,6.55-2.31.85-4.6-.59-5.76-3.73-3.29-8.9-2-17,4.57-24,5.73-6.13,11.73-12,17.46-18.15,5.18-5.53,10.17-11.24,11.24-19.21,1.11-8.34-.41-15.87-6.82-21.83-4-3.73-9.16-5.16-14.27-6.6a49.71,49.71,0,0,0-31.73,1.44,3.7,3.7,0,0,0-1.87,1.47c-2.41,4.32-4.79,8.66-7,13.08-1.37,2.7-3.63,4.09-5.85,3.22-2.49-1-3.53-3.55-2.48-6.45,2.41-6.69,5.6-13,10.67-18.06,5.43-5.41,11.4-10.29,16.77-15.76a61,61,0,0,0,9.75-12.16c6.38-11.26,1.8-25.93-10-31.26-12.59-5.68-26.07-6.64-39.74-5.33-1.85.18-1.75,1.52-2,2.59A36,36,0,0,1,238.29,198a4.25,4.25,0,0,1-5,1.15,3.84,3.84,0,0,1-2.65-4.06,7.47,7.47,0,0,1,1.71-3.71,30.63,30.63,0,0,0,6.27-11.72c2-7.57-.33-12.88-7.43-16a39.62,39.62,0,0,0-9.9-3c-5.73-.9-10.49,1.2-13.51,6.3-9.25,15.63-2.82,37,15.16,43.28,9.67,3.36,19.12,2.74,28.78-.24,3.07-.95,3.86-2.37,3.51-5-.43-3.18-1.08-6.34-1.74-9.48-.57-2.67.41-5.07,2.53-5.81,2.61-.92,4.81.2,5.92,3a33.06,33.06,0,0,1,1.15,3.53c2,7.6,1.82,15.08-2.63,21.79-2.45,3.7-5.77,6.83-8.6,10.3-5.86,7.21-12.27,14.06-17.33,21.8-6.93,10.62-1.63,24.69,10.16,29.44,10.75,4.34,21.77,2.4,32.72,1.56,4.42-.35,8.78-1.39,13.34-2.14.19-2.91-1.62-5.08-3.78-7.14a4.4,4.4,0,0,1,5.71-6.7c4.48,3.75,7.24,8.44,7.05,14.45-.14,4.47-2.55,7.95-5.49,11.11-4.35,4.69-8.82,9.28-13,14.09-5.64,6.43-10.85,13.11-13.16,21.67-2.86,10.6.53,19.2,9.82,24.93a44.43,44.43,0,0,0,24.2,6.35c6.33-.05,12.65-1.21,19-1.9,1.53-.17,2.1-1,2.17-2.62a20.55,20.55,0,0,1,6-13.55c6.53-6.83,17.27-7.77,26.19-4.35C358.67,336.63,361.53,338.85,365.07,340.92ZM332,355a25.73,25.73,0,0,0,.52,3.41c1.62,5.73,7.36,9.18,14,8.37,7.59-.91,12.07-5.95,15.58-12.12a2.66,2.66,0,0,0-.21-2,17.81,17.81,0,0,0-19.25-10C335.93,343.87,332.2,348.22,332,355Z" transform="translate(-194.66 -151.59)"/><path class="cls-2" d="M365.07,340.92c-3.54-2.07-6.4-4.29-9.64-5.53-8.92-3.42-19.66-2.48-26.19,4.35a20.55,20.55,0,0,0-6,13.55c-.07,1.62-.64,2.45-2.17,2.62-6.32.69-12.64,1.85-19,1.9a44.43,44.43,0,0,1-24.2-6.35c-9.29-5.73-12.68-14.33-9.82-24.93,2.31-8.56,7.52-15.24,13.16-21.67,4.22-4.81,8.69-9.4,13-14.09,2.94-3.16,5.35-6.64,5.49-11.11.19-6-2.57-10.7-7.05-14.45a4.4,4.4,0,0,0-5.71,6.7c2.16,2.06,4,4.23,3.78,7.14-4.56.75-8.92,1.79-13.34,2.14-10.95.84-22,2.78-32.72-1.56-11.79-4.75-17.09-18.82-10.16-29.44,5.06-7.74,11.47-14.59,17.33-21.8,2.83-3.47,6.15-6.6,8.6-10.3,4.45-6.71,4.59-14.19,2.63-21.79a33.06,33.06,0,0,0-1.15-3.53c-1.11-2.84-3.31-4-5.92-3-2.12.74-3.1,3.14-2.53,5.81.66,3.14,1.31,6.3,1.74,9.48.35,2.59-.44,4-3.51,5-9.66,3-19.11,3.6-28.78.24-18-6.25-24.41-27.65-15.16-43.28,3-5.1,7.78-7.2,13.51-6.3a39.62,39.62,0,0,1,9.9,3c7.1,3.16,9.39,8.47,7.43,16a30.63,30.63,0,0,1-6.27,11.72,7.47,7.47,0,0,0-1.71,3.71,3.84,3.84,0,0,0,2.65,4.06,4.25,4.25,0,0,0,5-1.15,36,36,0,0,0,8.61-14.91c.29-1.07.19-2.41,2-2.59,13.67-1.31,27.15-.35,39.74,5.33,11.79,5.33,16.37,20,10,31.26a61,61,0,0,1-9.75,12.16c-5.37,5.47-11.34,10.35-16.77,15.76-5.07,5-8.26,11.37-10.67,18.06-1.05,2.9,0,5.47,2.48,6.45,2.22.87,4.48-.52,5.85-3.22,2.23-4.42,4.61-8.76,7-13.08a3.7,3.7,0,0,1,1.87-1.47,49.71,49.71,0,0,1,31.73-1.44c5.11,1.44,10.25,2.87,14.27,6.6,6.41,6,7.93,13.49,6.82,21.83-1.07,8-6.06,13.68-11.24,19.21-5.73,6.13-11.73,12-17.46,18.15-6.55,7-7.86,15.09-4.57,24,1.16,3.14,3.45,4.58,5.76,3.73,2.7-1,3.48-3.25,2.77-6.55a36,36,0,0,1-1-8.31c0-3.29,1.35-4.24,4.59-4.57,11-1.13,21.9-.89,32.59,2.05,6.88,1.89,13.5,4.57,18.8,9.6C363.06,337.31,363.84,339.09,365.07,340.92Z" transform="translate(-194.66 -151.59)"/><path class="cls-2" d="M332,355c.23-6.77,4-11.12,10.68-12.31a17.81,17.81,0,0,1,19.25,10,2.66,2.66,0,0,1,.21,2c-3.51,6.17-8,11.21-15.58,12.12-6.68.81-12.42-2.64-14-8.37A25.73,25.73,0,0,1,332,355Z" transform="translate(-194.66 -151.59)"/></svg>