<svg id="Layer_1" data-name="Layer 1" xmlns="http://www.w3.org/2000/svg" viewBox="0 0 165.32 247.96"><defs><style>.cls-1{fill:#eaab4e;}.cls-2{fill:#fad575;}</style></defs><title>penne</title><path class="cls-1" d="M197.93,197.44a86.16,86.16,0,0,1,6.37-30.15c1.3-3.16,2.79-4.09,6.14-3.71,12.89,1.44,23,7.39,30.4,18.14q57.78,83.43,115.81,166.7c3.89,5.57,5.54,11.69,6.24,18.13A55.6,55.6,0,0,1,357,398.94a72.87,72.87,0,0,1-7.39,10.91,5.73,5.73,0,0,1-4.15,1.61c-11.06-.2-19.68-5.35-25.87-14.19q-26.22-37.41-52-75.13c-14.77-21.55-29.27-43.28-44-64.86-2.81-4.1-6.3-7.74-9.23-11.76A79.42,79.42,0,0,1,199.87,213C198.92,207.87,198.56,202.63,197.93,197.44Zm14-24.6c-4.67,9.41-6.06,27.9-3.21,39.42a77.62,77.62,0,0,0,15.71,31.86,14.55,14.55,0,0,0,8.82,5.12c1.64.3,2.51,0,3.26-1.66A65.41,65.41,0,0,0,241,204.35c-2.34-10-6.39-19.21-15-25.62A28.34,28.34,0,0,0,212,172.84Zm23.4,85.75c.42.68.74,1.24,1.1,1.78q40.4,59.28,80.84,118.53c3.79,5.56,7.8,11,12.07,16.19,3.71,4.52,8.78,6.86,15.42,7.48L242.92,254.63C241.5,258.37,238.27,258,235.38,258.59ZM250.24,235c-.82,2.93-1.41,5.53-2.3,8a4,4,0,0,0,.58,4.11q49.8,72.2,99.53,144.43c.46.67,1,1.3,1.7,2.28,1-2.81,1.83-5.28,2.76-7.72.75-2,.29-3.51-.93-5.26q-48.81-70.14-97.51-140.37Zm1.37-22.14c0,2.81-.08,5,0,7.28a5.07,5.07,0,0,0,.89,2.47q49.2,70.93,98.46,141.83c.88,1.27,1.78,2.53,2.67,3.8-.48-5-1.06-9.84-4-14.11Q313.45,302,277.36,249.91C268.89,237.69,260.4,225.48,251.61,212.83Z" transform="translate(-197.93 -163.5)"/><path class="cls-2" d="M212,172.84a28.34,28.34,0,0,1,14,5.89c8.61,6.41,12.66,15.59,15,25.62a65.41,65.41,0,0,1-4.39,43.23c-.75,1.62-1.62,2-3.26,1.66a14.55,14.55,0,0,1-8.82-5.12,77.62,77.62,0,0,1-15.71-31.86C205.92,200.74,207.31,182.25,212,172.84Z" transform="translate(-197.93 -163.5)"/><path class="cls-2" d="M235.38,258.59c2.89-.64,6.12-.22,7.54-4L344.81,402.57c-6.64-.62-11.71-3-15.42-7.48-4.27-5.2-8.28-10.63-12.07-16.19q-40.5-59.22-80.84-118.53C236.12,259.83,235.8,259.27,235.38,258.59Z" transform="translate(-197.93 -163.5)"/><path class="cls-2" d="M250.24,235l3.83,5.49q48.74,70.2,97.51,140.37c1.22,1.75,1.68,3.28.93,5.26-.93,2.44-1.76,4.91-2.76,7.72-.74-1-1.24-1.61-1.7-2.28q-49.76-72.22-99.53-144.43a4,4,0,0,1-.58-4.11C248.83,240.5,249.42,237.9,250.24,235Z" transform="translate(-197.93 -163.5)"/><path class="cls-2" d="M251.61,212.83c8.79,12.65,17.28,24.86,25.75,37.08Q313.5,302,349.64,354.1c3,4.27,3.55,9.11,4,14.11-.89-1.27-1.79-2.53-2.67-3.8q-49.24-70.91-98.46-141.83a5.07,5.07,0,0,1-.89-2.47C251.53,217.88,251.61,215.64,251.61,212.83Z" transform="translate(-197.93 -163.5)"/></svg>