<svg id="Layer_1" data-name="Layer 1" xmlns="http://www.w3.org/2000/svg" viewBox="0 0 203.98 203.88"><defs><style>.cls-1{fill:#eaab4e;}.cls-2{fill:#fad575;}</style></defs><title>ravioli</title><path class="cls-1" d="M360.26,385a31.49,31.49,0,0,1-5.44-2.37c-4.52-2.88-8.93-3.32-13.85-.93a20,20,0,0,1-17.59,0,15.32,15.32,0,0,0-13.86.09,19,19,0,0,1-16.88.17,16.5,16.5,0,0,0-14.78,0,19.38,19.38,0,0,1-17.11-.29,14.53,14.53,0,0,0-13.16-.14,21.9,21.9,0,0,1-18.36.28,17,17,0,0,0-14.15-.08,21.11,21.11,0,0,1-18.32-.38,11.23,11.23,0,0,0-11.79.78c-2.65,1.69-5.39,3.39-8.79,2.67-6.92-1.47-10.31-8.06-7.43-14.49a42.81,42.81,0,0,1,2.26-4.15,9.78,9.78,0,0,0,.47-9.74,22.68,22.68,0,0,1,0-21.07,12,12,0,0,0-.19-10.59c-3.07-6.75-3.29-13.41,0-20.17a12.64,12.64,0,0,0,0-11.31,23.4,23.4,0,0,1,.05-20.43,12.68,12.68,0,0,0,0-11.1,22.7,22.7,0,0,1-.06-20.39,12.84,12.84,0,0,0-.17-11.52,21.25,21.25,0,0,1,0-19.43,11,11,0,0,0-.84-11.74c-2.18-3.27-3.14-6.76-1.87-10.63,1.93-5.91,7.7-8.49,13.35-5.93a28.87,28.87,0,0,1,3.7,2,10.56,10.56,0,0,0,10.89.77,23.32,23.32,0,0,1,20.44,0,13.06,13.06,0,0,0,11.55-.16,21.83,21.83,0,0,1,19.47-.08,13.85,13.85,0,0,0,12.45-.15,20.26,20.26,0,0,1,18.25,0,13.94,13.94,0,0,0,12.46.19,21.85,21.85,0,0,1,19.45,0,13.4,13.4,0,0,0,12,0c5.86-2.7,11.86-3.13,17.84-.55,5.45,2.35,10.36,2,15.53-1.22,6.49-4,14-.57,15.32,6.67a11.66,11.66,0,0,1-.8,5.28,23,23,0,0,1-2.17,4.17,11.33,11.33,0,0,0-.43,11.16,21.37,21.37,0,0,1,.06,19.65,12.63,12.63,0,0,0-.17,11.3c3.19,6.92,3.33,13.74-.08,20.62-1.87,3.77-1.44,7.71.15,11.36A23.85,23.85,0,0,1,367.4,294a11.82,11.82,0,0,0,.33,10.6c3.26,6.67,3,13.27,0,19.93a13.26,13.26,0,0,0,.14,11.75c3.05,6.38,3.25,12.85-.49,19.05-2.05,3.4-1.22,6.47.43,9.62,1.12,2.13,2.23,4.25,3.19,6.45C373.81,377.7,367.41,384.87,360.26,385Zm-183.89-10.5.41,1.07c1.13-.23,2.49-.13,3.35-.73,6.46-4.52,13.22-4.9,20.3-1.8a15.47,15.47,0,0,0,13.66-.25,19.24,19.24,0,0,1,16.88,0,15.92,15.92,0,0,0,14.31,0c5.25-2.43,10.89-2.76,16.17-.18s10.45,2.46,15.78.14a20.45,20.45,0,0,1,17.38.36,14.51,14.51,0,0,0,13.15-.09,19.76,19.76,0,0,1,18,.09,13.66,13.66,0,0,0,12.46.22c7-3.3,13.63-2.55,20.22,1.16,1.13.64,2.65.58,4,.84a17.83,17.83,0,0,0-1.23-3.91c-3.93-6.73-6-13.46-1.34-20.79,1.91-3,1.77-6.36.25-9.55a24.35,24.35,0,0,1-.27-21.39,13.36,13.36,0,0,0-.28-11.79c-3-6.21-2.8-12.53.05-18.73a13.8,13.8,0,0,0,0-12.2c-2.92-6.38-3.07-12.81.12-19.21a12.29,12.29,0,0,0,1-8.94,56.07,56.07,0,0,0-1.86-5.67,19.61,19.61,0,0,1,.43-16,15.65,15.65,0,0,0-.12-14.3,17.38,17.38,0,0,1,.74-16.94c.69-1.22,1.53-2.37,2.14-3.64a2.14,2.14,0,0,0-.13-1.73c-.15-.25-1-.18-1.51-.07a4.4,4.4,0,0,0-1.58.7c-6.58,4.73-13.39,4.8-20.72,1.61-2.42-1.05-5.47-1-8.2-.87-2,.11-3.93,1.19-5.88,1.87a20.76,20.76,0,0,1-16.24-.57,15.33,15.33,0,0,0-13.85,0c-5.42,2.53-11.18,2.88-16.64.27a17.43,17.43,0,0,0-15.29-.25,20.4,20.4,0,0,1-17.39-.13,14.8,14.8,0,0,0-13.61.12,19.1,19.1,0,0,1-17.09.07,16.45,16.45,0,0,0-13.9-.39,34.29,34.29,0,0,1-7.89,2.09c-4.13.57-7.76-1.17-11.28-3.17a29.87,29.87,0,0,0-3.83-1.57l-.65.73a30,30,0,0,0,2.23,4.76c3.8,5.48,3.86,11.34,1.2,17a16.46,16.46,0,0,0,0,14.76,18.59,18.59,0,0,1,.08,16.18c-2.54,5.22-2.34,10.13-.1,15.31a20.73,20.73,0,0,1-.33,17.6,14.64,14.64,0,0,0,0,13.15,20.16,20.16,0,0,1-.06,18,14.27,14.27,0,0,0-.22,12.69c2.52,5.66,3.35,11.59.73,17.38a18.48,18.48,0,0,0,.16,16.45,15.58,15.58,0,0,1-1.49,16.09A46.56,46.56,0,0,0,176.37,374.47Z" transform="translate(-167.72 -181.09)"/><path class="cls-2" d="M176.37,374.47a46.56,46.56,0,0,1,2.29-4.09,15.58,15.58,0,0,0,1.49-16.09,18.48,18.48,0,0,1-.16-16.45c2.62-5.79,1.79-11.72-.73-17.38a14.27,14.27,0,0,1,.22-12.69,20.16,20.16,0,0,0,.06-18,14.64,14.64,0,0,1,0-13.15,20.73,20.73,0,0,0,.33-17.6c-2.24-5.18-2.44-10.09.1-15.31a18.59,18.59,0,0,0-.08-16.18,16.46,16.46,0,0,1,0-14.76c2.66-5.71,2.6-11.57-1.2-17a30,30,0,0,1-2.23-4.76l.65-.73a29.87,29.87,0,0,1,3.83,1.57c3.52,2,7.15,3.74,11.28,3.17a34.29,34.29,0,0,0,7.89-2.09,16.45,16.45,0,0,1,13.9.39,19.1,19.1,0,0,0,17.09-.07,14.8,14.8,0,0,1,13.61-.12,20.4,20.4,0,0,0,17.39.13,17.43,17.43,0,0,1,15.29.25c5.46,2.61,11.22,2.26,16.64-.27a15.33,15.33,0,0,1,13.85,0,20.76,20.76,0,0,0,16.24.57c1.95-.68,3.89-1.76,5.88-1.87,2.73-.14,5.78-.18,8.2.87,7.33,3.19,14.14,3.12,20.72-1.61a4.4,4.4,0,0,1,1.58-.7c.5-.11,1.36-.18,1.51.07a2.14,2.14,0,0,1,.13,1.73c-.61,1.27-1.45,2.42-2.14,3.64a17.38,17.38,0,0,0-.74,16.94,15.65,15.65,0,0,1,.12,14.3,19.61,19.61,0,0,0-.43,16,56.07,56.07,0,0,1,1.86,5.67,12.29,12.29,0,0,1-1,8.94c-3.19,6.4-3,12.83-.12,19.21a13.8,13.8,0,0,1,0,12.2c-2.85,6.2-3.06,12.52-.05,18.73a13.36,13.36,0,0,1,.28,11.79,24.35,24.35,0,0,0,.27,21.39c1.52,3.19,1.66,6.55-.25,9.55-4.67,7.33-2.59,14.06,1.34,20.79a17.83,17.83,0,0,1,1.23,3.91c-1.34-.26-2.86-.2-4-.84-6.59-3.71-13.25-4.46-20.22-1.16a13.66,13.66,0,0,1-12.46-.22,19.76,19.76,0,0,0-18-.09,14.51,14.51,0,0,1-13.15.09,20.45,20.45,0,0,0-17.38-.36c-5.33,2.32-10.41,2.47-15.78-.14s-10.92-2.25-16.17.18a15.92,15.92,0,0,1-14.31,0,19.24,19.24,0,0,0-16.88,0,15.47,15.47,0,0,1-13.66.25c-7.08-3.1-13.84-2.72-20.3,1.8-.86.6-2.22.5-3.35.73Zm93.27-13c8.83,0,17.66,0,26.49,0a62.11,62.11,0,0,0,6.95-.5,48.76,48.76,0,0,0,29.61-14.48c10.37-10.59,15.16-23.59,15.25-38.31.1-16,.06-32,0-48,0-3.56-.24-7.14-.6-10.69-1.23-12.27-6.77-22.5-15.56-30.9-10.07-9.62-22.37-14-36.2-14-16.66-.08-33.32,0-50,0-2.9,0-5.82.15-8.71.44a48.61,48.61,0,0,0-30.36,14.48C196.14,229.8,191.11,242.5,191,257.1q-.15,26,0,52a61.17,61.17,0,0,0,1,11.14c4.54,23.59,26,41.22,50.06,41.24Q255.89,361.48,269.64,361.46Z" transform="translate(-167.72 -181.09)"/><path class="cls-1" d="M269.64,361.46q-13.74,0-27.49,0c-24,0-45.52-17.65-50.06-41.24a61.17,61.17,0,0,1-1-11.14q-.17-26,0-52c.08-14.6,5.11-27.3,15.48-37.66A48.61,48.61,0,0,1,236.87,205c2.89-.29,5.81-.43,8.71-.44,16.67,0,33.33-.08,50,0,13.83.07,26.13,4.43,36.2,14,8.79,8.4,14.33,18.63,15.56,30.9.36,3.55.59,7.13.6,10.69.07,16,.11,32,0,48-.09,14.72-4.88,27.72-15.25,38.31a48.76,48.76,0,0,1-29.61,14.48,62.11,62.11,0,0,1-6.95.5C287.3,361.5,278.47,361.46,269.64,361.46Zm-.16-8.85c8.08,0,16.17,0,24.25,0,14.8-.07,27.26-5.24,36.6-17,6.37-8,8.74-17.39,8.77-27.45,0-16.33.15-32.67-.07-49a59.85,59.85,0,0,0-1.79-14.56,41.45,41.45,0,0,0-39.89-30.94c-18.83-.13-37.66,0-56.5,0a32.31,32.31,0,0,0-6.44.61,42.87,42.87,0,0,0-34.3,42.06v30.45c0,8.08-.07,16.17,0,24.25a40.08,40.08,0,0,0,6.71,22.05c8.66,13.1,21.19,19.2,36.64,19.52C252.15,352.76,260.82,352.61,269.48,352.61Z" transform="translate(-167.72 -181.09)"/><path class="cls-2" d="M269.48,352.61c-8.66,0-17.33.15-26,0-15.45-.32-28-6.42-36.64-19.52A40.08,40.08,0,0,1,200.13,311c-.09-8.08,0-16.17,0-24.25V256.31a42.87,42.87,0,0,1,34.3-42.06,32.31,32.31,0,0,1,6.44-.61c18.84,0,37.67-.13,56.5,0a41.45,41.45,0,0,1,39.89,30.94A59.85,59.85,0,0,1,339,259.14c.22,16.32.12,32.66.07,49,0,10.06-2.4,19.43-8.77,27.45-9.34,11.78-21.8,16.95-36.6,17C285.65,352.64,277.56,352.61,269.48,352.61Z" transform="translate(-167.72 -181.09)"/></svg>